<?xml version="1.0" standalone="no"?><!DOCTYPE svg PUBLIC "-//W3C//DTD SVG 1.1//EN" "http://www.w3.org/Graphics/SVG/1.1/DTD/svg11.dtd"><svg class="icon" width="22px" height="22.00px" viewBox="0 0 1024 1024" version="1.1" xmlns="http://www.w3.org/2000/svg"><path d="M752 962.7H272c-91 0-165-74-165-165V526.3c0-24.8 20.2-45 45-45s45 20.2 45 45v271.4c0 41.4 33.6 75 75 75h480c41.4 0 75-33.6 75-75V526.3c0-24.8 20.2-45 45-45s45 20.2 45 45v271.4c0 91-74 165-165 165z" fill="#4C4F54" /><path d="M782 443.4c-52.6 0-100.2-20.2-135-55.2-34.8 35.1-82.4 55.2-135 55.2s-100.2-20.2-135-55.2c-34.8 35.1-82.4 55.2-135 55.2-79 0-146.7-45.4-176.7-118.6-2.2-5.4-3.3-11.2-3.3-17v-81.5c0-91 74-165 165-165h570c91 0 165 74 165 165v81.5c0 5.8-1.1 11.6-3.3 17C928.7 398 861 443.4 782 443.4zM647 262.8c18.3 0 34.7 11 41.7 28 18.9 46.2 60.6 62.7 93.3 62.7 30.9 0 69.8-14.7 90-55.3v-71.9c0-41.4-33.6-75-75-75H227c-41.4 0-75 33.6-75 75v71.9c20.2 40.5 59.1 55.3 90 55.3 32.7 0 74.4-16.5 93.3-62.7 6.9-16.9 23.4-28 41.7-28s34.7 11 41.7 28c18.9 46.2 60.6 62.7 93.3 62.7s74.4-16.5 93.3-62.7c7-17 23.4-28 41.7-28z m270 45h0.3-0.3z" fill="#2081F6" /><path d="M707 616.3c-24.9 0-45 20.1-45 45v90c0 24.9 20.1 45 45 45s45-20.1 45-45v-90c0-24.9-20.1-45-45-45z" fill="#4C4F54" /></svg>